# This file uses centimeters as units for non-parametric coordinates.

mtllib butterfly.mtl
v 0.193334 0.000000 0.581975
v 3.714212 -0.002207 1.016722
v 0.193410 -0.000000 1.337951
v 4.420044 -0.003003 4.398570
v 2.496596 -0.001325 3.882216
v 2.238329 -0.001155 0.557925
v 3.750788 -0.002151 4.624739
v 3.149935 -0.001755 0.564992
v 1.480202 -0.000655 2.860423
v 1.356541 -0.000573 0.543607
v 4.462731 -0.002621 2.596507
v 3.521702 -0.002000 2.184175
v 2.497120 -0.001325 1.771845
v 1.472538 -0.000650 1.359514
v 0.193205 0.000000 0.954169
v 4.752351 -0.002812 3.612264
v 3.636244 -0.002076 3.404457
v 2.496857 -0.001325 2.827030
v 1.476370 -0.000652 2.109968
v 0.193405 -0.000000 1.105784
v 4.149241 -0.002414 1.636406
v 3.335817 -0.001878 1.374584
v 2.373198 -0.001243 1.168418
v 1.410577 -0.000609 0.962253
v 0.193272 0.000000 0.750831
v 3.686249 -0.002112 -0.720729
v 0.193798 -0.000001 -0.039214
v 1.198800 -0.000471 -3.306021
v 2.566179 -0.001374 -3.780127
v 3.052011 -0.001693 0.135186
v 0.610381 -0.000082 -2.252710
v 3.553395 -0.002025 -2.365788
v 2.949329 -0.001626 -1.891713
v 2.080640 -0.001052 -1.194968
v 1.211951 -0.000479 -0.498223
v 0.194042 -0.000001 0.261036
v 3.130736 -0.001747 -3.192704
v 2.840091 -0.001478 -3.636811
v 1.791336 -0.000862 -2.206672
v 1.010046 -0.000346 -1.218936
v 0.193820 -0.000001 0.116084
v 3.777191 -0.002172 -1.503459
v 2.993015 -0.001655 -1.060747
v 2.127212 -0.001083 -0.579912
v 1.261410 -0.000511 -0.099078
v 0.193686 -0.000001 0.416333
v 0.087875 0.000000 0.581975
v 0.089730 0.000000 0.743935
v 0.089730 0.000000 0.905894
v 0.089730 0.000000 1.067853
v 0.085451 0.000000 1.372576
v 0.088318 0.000000 0.426678
v 0.095266 -0.000000 0.188623
v 0.092913 0.000000 0.116084
v 0.095211 0.000000 -0.039214
v -0.003347 0.000000 0.583405
v -0.003347 0.000000 0.745839
v -0.003347 0.000000 0.905894
v -0.003347 0.000000 1.067853
v -0.003347 0.000000 1.407473
v -0.003347 0.000000 0.423743
v -0.003347 0.000000 0.156116
v -0.003347 0.000000 0.111162
v -0.003347 0.000000 -0.044135
v 0.085457 0.000000 -1.320489
v 0.033428 0.000000 -1.373096
v -0.003347 0.000000 -1.403303
v 0.175549 0.000000 -0.379006
v 0.095211 0.000000 -0.379006
v -0.003347 0.000000 -0.383927
v 0.175583 0.000000 -0.973981
v 0.091444 0.000000 -1.030252
v -0.003347 -0.000000 -1.063511
v 0.124345 0.000000 -1.194855
v 0.067376 0.000000 -1.210832
v -0.003347 0.000000 -1.233407
v 0.165249 -0.000000 1.618234
v 0.085451 0.000000 1.718747
v -0.003347 0.000000 1.753645
v 0.172016 -0.000000 1.478044
v 0.085451 0.000000 1.545662
v -0.003347 0.000000 1.580559
v 0.405413 -0.000000 2.721167
v 0.318458 -0.000000 2.756065
v 0.168752 0.000000 2.265800
v 0.241632 0.000000 2.236552
v 0.308673 0.000000 2.446590
v 0.235794 0.000000 2.475838
v 0.153590 -0.000000 1.964227
v 0.080711 0.000000 1.993476
v 0.125447 0.000000 1.844050
v 0.038491 0.000000 1.878947
v 0.275153 0.000000 2.341571
v 0.202273 -0.000000 2.370820
v 0.208111 -0.000000 2.131533
v 0.135231 -0.000000 2.160781
v 0.342194 0.000000 2.551609
v 0.269315 -0.000000 2.580857
v -3.156630 -0.001755 0.564992
v -3.720907 -0.002207 1.016722
v -4.155935 -0.002414 1.636406
v -3.342512 -0.001877 1.374584
v -1.363235 -0.000573 0.543607
v -2.245023 -0.001155 0.557925
v -2.379892 -0.001243 1.168418
v -1.417271 -0.000609 0.962253
v -0.200028 0.000000 0.581975
v -0.199966 0.000000 0.750831
v -3.528396 -0.002000 2.184175
v -4.469425 -0.002620 2.596507
v -4.759046 -0.002812 3.612264
v -3.642938 -0.002076 3.404457
v -2.503814 -0.001325 1.771845
v -2.503551 -0.001325 2.827030
v -1.479232 -0.000650 1.359514
v -1.483064 -0.000652 2.109968
v -0.199899 0.000000 0.954169
v -0.200099 -0.000000 1.105784
v -4.426738 -0.003003 4.398570
v -3.757482 -0.002152 4.624739
v -2.503291 -0.001325 3.882216
v -1.486897 -0.000655 2.860423
v -0.200105 -0.000000 1.337951
v -3.058705 -0.001693 0.135186
v -3.692943 -0.002113 -0.720729
v -3.783885 -0.002172 -1.503459
v -2.999709 -0.001654 -1.060747
v -2.133906 -0.001082 -0.579912
v -1.268104 -0.000511 -0.099078
v -0.200380 -0.000000 0.416333
v -2.956023 -0.001626 -1.891713
v -3.560089 -0.002025 -2.365788
v -3.137430 -0.001747 -3.192704
v -2.846785 -0.001478 -3.636811
v -2.087334 -0.001052 -1.194968
v -1.798030 -0.000862 -2.206672
v -1.218645 -0.000478 -0.498223
v -1.016740 -0.000346 -1.218936
v -0.200736 -0.000001 0.261036
v -0.200514 -0.000001 0.116084
v -2.572873 -0.001374 -3.780127
v -1.205494 -0.000471 -3.306021
v -0.617076 -0.000082 -2.252710
v -0.200492 -0.000001 -0.039214
v -0.095012 0.000000 0.426678
v -0.094569 0.000000 0.581975
v -0.099608 0.000000 0.116084
v -0.101960 -0.000000 0.188623
v -0.101906 0.000000 -0.039214
v -0.096424 0.000000 0.743935
v -0.096424 0.000000 0.905894
v -0.096424 0.000000 1.067853
v -0.092145 0.000000 1.372576
v -0.101906 0.000000 -0.379006
v -0.098138 -0.000000 -1.030252
v -0.074070 -0.000000 -1.210832
v -0.040122 0.000000 -1.373096
v -0.178711 0.000000 1.478044
v -0.092145 0.000000 1.545662
v -0.171944 0.000000 1.618234
v -0.092145 0.000000 1.718747
v -0.248326 0.000000 2.236552
v -0.281847 0.000000 2.341571
v -0.175446 0.000000 2.265800
v -0.208967 0.000000 2.370820
v -0.045185 0.000000 1.878947
v -0.132141 0.000000 1.844050
v -0.315368 0.000000 2.446590
v -0.348889 0.000000 2.551609
v -0.242488 0.000000 2.475838
v -0.276009 -0.000000 2.580857
v -0.160284 0.000000 1.964227
v -0.214805 0.000000 2.131533
v -0.087405 0.000000 1.993476
v -0.141925 0.000000 2.160781
v -0.412108 0.000000 2.721167
v -0.325153 0.000000 2.756065
v -0.182243 0.000000 -0.379006
v -0.182278 0.000000 -0.973981
v -0.131039 0.000000 -1.194855
v -0.092151 0.000000 -1.320489
vt 0.388346 0.733169
vt 0.426327 0.774849
vt 0.478356 0.806916
vt 0.456238 0.746738
vt 0.386168 0.600357
vt 0.387558 0.665658
vt 0.438752 0.675498
vt 0.421266 0.604257
vt 0.389134 0.514201
vt 0.403285 0.514156
vt 0.524129 0.760308
vt 0.558889 0.829899
vt 0.644081 0.851101
vt 0.626425 0.768494
vt 0.489351 0.684528
vt 0.577786 0.684252
vt 0.454574 0.608749
vt 0.517470 0.608850
vt 0.420327 0.514101
vt 0.433034 0.514079
vt 0.709909 0.826299
vt 0.728720 0.776680
vt 0.666220 0.683976
vt 0.580366 0.608951
vt 0.452492 0.514023
vt 0.352303 0.726021
vt 0.280706 0.773201
vt 0.215126 0.780127
vt 0.252060 0.721943
vt 0.292173 0.657706
vt 0.332285 0.593468
vt 0.375252 0.514268
vt 0.182408 0.718910
vt 0.142806 0.763762
vt 0.073412 0.732662
vt 0.036129 0.711245
vt 0.240615 0.654406
vt 0.155763 0.633227
vt 0.298822 0.589902
vt 0.238376 0.575125
vt 0.362236 0.514332
vt 0.350088 0.514351
vt 0.024059 0.690994
vt 0.063499 0.589612
vt 0.151650 0.545778
vt 0.337072 0.514387
vt 0.402685 0.506489
vt 0.389111 0.506391
vt 0.429833 0.506410
vt 0.416259 0.506450
vt 0.455370 0.506019
vt 0.376096 0.506462
vt 0.350066 0.506878
vt 0.356146 0.507034
vt 0.337051 0.507086
vt 0.402825 0.499595
vt 0.389211 0.499635
vt 0.429813 0.499517
vt 0.416239 0.499556
vt 0.458276 0.499434
vt 0.375830 0.499674
vt 0.349633 0.499750
vt 0.353400 0.499739
vt 0.336617 0.499788
vt 0.308573 0.507168
vt 0.308591 0.513118
vt 0.308140 0.499870
vt 0.253992 0.507048
vt 0.258726 0.513265
vt 0.251184 0.500036
vt 0.238853 0.505309
vt 0.240204 0.509525
vt 0.236945 0.500077
vt 0.229666 0.506675
vt 0.225246 0.502835
vt 0.222707 0.500119
vt 0.464228 0.512405
vt 0.469876 0.505977
vt 0.472782 0.499392
vt 0.475976 0.511869
vt 0.484383 0.505935
vt 0.487288 0.499350
vt 0.530249 0.511971
vt 0.527813 0.517376
vt 0.536622 0.519833
vt 0.539057 0.514428
vt 0.494893 0.508867
vt 0.497799 0.502418
vt 0.547866 0.516885
vt 0.545431 0.522290
vt 0.554239 0.524747
vt 0.556675 0.519342
vt 0.507406 0.505517
vt 0.504971 0.510922
vt 0.519004 0.514919
vt 0.521440 0.509514
vt 0.568464 0.529387
vt 0.571370 0.522939
vt 0.386990 0.266110
vt 0.454801 0.252147
vt 0.476570 0.191841
vt 0.424728 0.224210
vt 0.385583 0.398932
vt 0.420658 0.394829
vt 0.437730 0.323488
vt 0.386594 0.333624
vt 0.389049 0.485069
vt 0.403201 0.485033
vt 0.522613 0.238183
vt 0.624859 0.229403
vt 0.642035 0.146695
vt 0.556967 0.168391
vt 0.488276 0.314163
vt 0.576710 0.313926
vt 0.453939 0.390143
vt 0.516833 0.389677
vt 0.420242 0.484988
vt 0.432949 0.484937
vt 0.727105 0.220623
vt 0.708006 0.171114
vt 0.665145 0.313688
vt 0.579728 0.389210
vt 0.452407 0.484880
vt 0.350989 0.273467
vt 0.250771 0.278127
vt 0.213499 0.220159
vt 0.279119 0.226704
vt 0.331741 0.406134
vt 0.291256 0.342131
vt 0.375167 0.485084
vt 0.181138 0.281565
vt 0.034906 0.290079
vt 0.072064 0.268446
vt 0.141276 0.236943
vt 0.239719 0.345729
vt 0.154991 0.367401
vt 0.298299 0.409894
vt 0.237940 0.425023
vt 0.362151 0.485095
vt 0.350003 0.485147
vt 0.062982 0.411552
vt 0.022954 0.310400
vt 0.151386 0.454873
vt 0.336988 0.485186
vt 0.530175 0.486480
vt 0.538969 0.483972
vt 0.536502 0.478582
vt 0.527708 0.481090
vt 0.469838 0.492824
vt 0.484344 0.492782
vt 0.455332 0.492867
vt 0.429792 0.492624
vt 0.416219 0.492663
vt 0.402645 0.492703
vt 0.389072 0.492880
vt 0.376056 0.492885
vt 0.356104 0.492428
vt 0.350025 0.492620
vt 0.337009 0.492487
vt 0.308531 0.492570
vt 0.253951 0.493008
vt 0.238822 0.494834
vt 0.225230 0.497388
vt 0.497781 0.496221
vt 0.494837 0.489790
vt 0.547763 0.481464
vt 0.556558 0.478956
vt 0.554091 0.473565
vt 0.545297 0.476074
vt 0.507370 0.493067
vt 0.521380 0.488988
vt 0.518913 0.483598
vt 0.504903 0.487676
vt 0.571231 0.475274
vt 0.568288 0.468842
vt 0.464153 0.486430
vt 0.475903 0.486897
vt 0.308514 0.486620
vt 0.258649 0.486763
vt 0.240149 0.490611
vt 0.229628 0.493522
vn -0.000679 -1.000000 0.000019
vn -0.000772 -1.000000 0.000105
vn -0.000675 -1.000000 0.000015
vn -0.000685 -1.000000 0.000024
vn -0.000583 -1.000000 -0.000006
vn -0.000659 -1.000000 0.000001
vn -0.000659 -1.000000 0.000000
vn -0.000589 -1.000000 -0.000006
vn -0.000496 -1.000000 -0.000014
vn -0.000498 -1.000000 -0.000015
vn -0.000659 -1.000000 0.000000
vn -0.000659 -1.000000 -0.000000
vn -0.000776 -1.000000 -0.000115
vn -0.000696 -1.000000 -0.000037
vn -0.000659 -1.000000 0.000000
vn -0.000659 -1.000000 -0.000000
vn -0.000595 -1.000000 -0.000002
vn -0.000599 -1.000000 -0.000000
vn -0.000504 -1.000000 -0.000008
vn -0.000508 -1.000000 -0.000001
vn -0.000891 -1.000000 -0.000230
vn -0.000773 -1.000000 -0.000112
vn -0.000659 -1.000000 -0.000000
vn -0.000634 -1.000000 -0.000000
vn -0.000508 -1.000000 -0.000001
vn 0.000660 1.000000 -0.000001
vn 0.000660 1.000000 -0.000000
vn 0.000660 1.000000 -0.000000
vn 0.000660 1.000000 -0.000000
vn 0.000604 1.000000 0.000006
vn 0.000660 1.000000 -0.000001
vn 0.000660 1.000000 -0.000001
vn 0.000598 1.000000 0.000006
vn 0.000491 1.000000 0.000019
vn 0.000489 1.000000 0.000018
vn 0.000664 1.000000 0.000017
vn 0.000710 1.000000 0.000006
vn 0.000747 1.000000 0.000011
vn 0.000638 1.000000 -0.000003
vn 0.000658 1.000000 0.000009
vn 0.000648 1.000000 0.000008
vn 0.000595 1.000000 0.000013
vn 0.000599 1.000000 0.000019
vn 0.000487 1.000000 0.000025
vn 0.000495 1.000000 0.000042
vn 0.000608 1.000000 -0.000026
vn 0.000631 1.000000 -0.000015
vn 0.000640 1.000000 0.000006
vn 0.000500 1.000000 0.000054
vn 0.000001 -1.000000 0.000000
vn 0.000001 -1.000000 0.000000
vn 0.000001 -1.000000 0.000000
vn 0.000000 -1.000000 0.000000
vn 0.000001 -1.000000 -0.000001
vn 0.000001 -1.000000 -0.000001
vn -0.000000 -1.000000 -0.000000
vn 0.000001 -1.000000 -0.000000
vn -0.000001 -1.000000 -0.000000
vn -0.000001 -1.000000 -0.000000
vn -0.000000 -1.000000 -0.000000
vn 0.000002 -1.000000 0.000000
vn 0.000002 -1.000000 0.000000
vn 0.000003 1.000000 -0.000001
vn 0.000001 1.000000 -0.000001
vn 0.000003 1.000000 -0.000002
vn 0.000003 1.000000 -0.000002
vn 0.000005 1.000000 0.000000
vn 0.000004 1.000000 0.000000
vn 0.000009 1.000000 0.000002
vn 0.000009 1.000000 0.000002
vn 0.000004 1.000000 0.000000
vn 0.000008 1.000000 0.000000
vn 0.000008 1.000000 0.000000
vn 0.000009 1.000000 -0.000001
vn 0.000009 1.000000 -0.000001
vn 0.000000 -1.000000 -0.000000
vn 0.000000 -1.000000 -0.000000
vn 0.000000 -1.000000 -0.000000
vn 0.000000 -1.000000 -0.000000
vn 0.000000 -1.000000 0.000000
vn 0.000000 1.000000 -0.000000
vn -0.000000 1.000000 -0.000000
vn 0.000000 1.000000 0.000000
vn 0.000000 1.000000 0.000000
vn 0.000000 1.000000 -0.000000
vn 0.000002 1.000000 0.000000
vn 0.000004 1.000000 0.000001
vn 0.000004 1.000000 0.000001
vn 0.000002 1.000000 0.000000
vn -0.000000 1.000000 -0.000000
vn 0.000000 1.000000 0.000000
vn 0.000000 1.000000 0.000000
vn -0.000000 1.000000 -0.000000
vn 0.000000 1.000000 0.000000
vn 0.000000 1.000000 0.000000
vn -0.000001 1.000000 -0.000000
vn -0.000001 1.000000 0.000000
vn 0.000000 1.000000 0.000000
vn 0.000000 1.000000 0.000000
vn -0.000000 1.000000 0.000000
vn -0.000001 1.000000 0.000000
vn 0.000000 1.000000 0.000000
vn 0.000000 1.000000 0.000000
vn 0.000000 1.000000 0.000000
vn 0.000000 1.000000 0.000000
vn -0.000000 -1.000000 0.000000
vn -0.000000 -1.000000 0.000000
vn -0.000000 -1.000000 0.000000
vn -0.000000 -1.000000 0.000000
vn 0.000000 -1.000000 0.000000
vn 0.000000 -1.000000 0.000000
vn 0.000000 -1.000000 0.000000
vn 0.000000 -1.000000 0.000000
vn -0.000000 -1.000000 -0.000000
vn -0.000000 -1.000000 -0.000000
vn 0.000000 -1.000000 0.000000
vn 0.000000 -1.000000 0.000000
vn 0.000000 -1.000000 0.000000
vn 0.000000 -1.000000 0.000000
vn 0.000000 -1.000000 -0.000000
vn 0.000000 -1.000000 -0.000000
vn 0.000000 -1.000000 0.000000
vn 0.000000 -1.000000 0.000000
vn -0.000000 -1.000000 0.000000
vn -0.000000 -1.000000 0.000000
vn 0.000001 -1.000000 -0.000001
vn 0.000000 -1.000000 -0.000001
vn 0.000001 -1.000000 -0.000000
vn 0.000001 -1.000000 -0.000000
vn -0.000000 -1.000000 0.000000
vn -0.000000 -1.000000 0.000000
vn -0.000000 -1.000000 0.000000
vn -0.000000 -1.000000 0.000000
vn 0.000002 -1.000000 0.000000
vn 0.000002 -1.000000 0.000000
vn 0.000679 -1.000000 0.000020
vn 0.000684 -1.000000 0.000024
vn 0.000675 -1.000000 0.000015
vn 0.000772 -1.000000 0.000106
vn 0.000583 -1.000000 -0.000006
vn 0.000589 -1.000000 -0.000007
vn 0.000659 -1.000000 0.000000
vn 0.000659 -1.000000 0.000001
vn 0.000496 -1.000000 -0.000015
vn 0.000498 -1.000000 -0.000015
vn 0.000659 -1.000000 -0.000000
vn 0.000696 -1.000000 -0.000037
vn 0.000775 -1.000000 -0.000115
vn 0.000659 -1.000000 -0.000001
vn 0.000659 -1.000000 -0.000000
vn 0.000659 -1.000000 -0.000000
vn 0.000595 -1.000000 -0.000002
vn 0.000599 -1.000000 -0.000000
vn 0.000504 -1.000000 -0.000008
vn 0.000508 -1.000000 -0.000001
vn 0.000773 -1.000000 -0.000113
vn 0.000891 -1.000000 -0.000229
vn 0.000659 -1.000000 -0.000000
vn 0.000634 -1.000000 -0.000000
vn 0.000508 -1.000000 -0.000001
vn -0.000661 1.000000 -0.000000
vn -0.000660 1.000000 -0.000000
vn -0.000660 1.000000 -0.000000
vn -0.000661 1.000000 0.000000
vn -0.000604 1.000000 0.000006
vn -0.000598 1.000000 0.000006
vn -0.000660 1.000000 -0.000000
vn -0.000660 1.000000 -0.000000
vn -0.000491 1.000000 0.000019
vn -0.000489 1.000000 0.000018
vn -0.000664 1.000000 0.000017
vn -0.000638 1.000000 -0.000003
vn -0.000747 1.000000 0.000011
vn -0.000710 1.000000 0.000006
vn -0.000658 1.000000 0.000009
vn -0.000648 1.000000 0.000008
vn -0.000595 1.000000 0.000012
vn -0.000599 1.000000 0.000019
vn -0.000487 1.000000 0.000025
vn -0.000494 1.000000 0.000042
vn -0.000631 1.000000 -0.000015
vn -0.000609 1.000000 -0.000025
vn -0.000640 1.000000 0.000007
vn -0.000500 1.000000 0.000054
vn -0.000000 -1.000000 -0.000000
vn 0.000000 -1.000000 0.000000
vn 0.000000 -1.000000 0.000000
vn -0.000000 -1.000000 -0.000000
vn -0.000000 -1.000000 -0.000000
vn -0.000000 -1.000000 -0.000000
vn -0.000000 -1.000000 -0.000000
vn -0.000000 -1.000000 -0.000000
vn -0.000000 -1.000000 -0.000000
vn -0.000000 -1.000000 -0.000000
vn 0.000000 -1.000000 -0.000000
vn -0.000000 -1.000000 0.000000
vn -0.000000 -1.000000 0.000000
vn 0.000001 -1.000000 -0.000000
vn -0.000001 -1.000000 -0.000000
vn -0.000000 -1.000000 -0.000000
vn -0.000001 -1.000000 0.000000
vn -0.000000 -1.000000 -0.000000
vn -0.000000 -1.000000 0.000000
vn -0.000000 -1.000000 -0.000000
vn 0.000000 1.000000 -0.000000
vn -0.000002 1.000000 -0.000001
vn -0.000001 1.000000 -0.000000
vn 0.000000 1.000000 0.000000
vn 0.000000 1.000000 -0.000000
vn -0.000004 1.000000 -0.000000
vn -0.000000 1.000000 0.000000
vn -0.000004 1.000000 0.000000
vn -0.000000 1.000000 -0.000000
vn -0.000004 1.000000 0.000000
vn 0.000000 1.000000 -0.000000
vn 0.000000 1.000000 -0.000000
vn 0.000000 1.000000 -0.000000
vn 0.000000 1.000000 -0.000000
vn 0.000001 1.000000 0.000000
vn 0.000001 1.000000 -0.000000
vn 0.000000 1.000000 0.000000
vn 0.000001 1.000000 0.000000
vn -0.000000 1.000000 0.000000
vn -0.000000 1.000000 0.000000
vn -0.000000 -1.000000 -0.000000
vn -0.000000 -1.000000 -0.000000
vn -0.000000 -1.000000 -0.000000
vn -0.000000 -1.000000 -0.000000
vn -0.000001 -1.000000 -0.000001
vn -0.000001 -1.000000 -0.000000
vn -0.000001 -1.000000 -0.000000
vn -0.000000 -1.000000 -0.000001
vn -0.000000 -1.000000 0.000000
vn -0.000000 -1.000000 -0.000000
vn -0.000000 -1.000000 -0.000000
vn -0.000000 -1.000000 0.000000
vn -0.000002 -1.000000 0.000000
vn -0.000002 -1.000000 0.000000
vn 0.000000 -1.000000 0.000000
vn 0.000000 -1.000000 0.000000
vn 0.000000 -1.000000 -0.000000
vn 0.000000 -1.000000 -0.000000
vn 0.000001 -1.000000 0.000001
vn 0.000001 -1.000000 0.000001
vn 0.000001 -1.000000 -0.000000
vn 0.000001 -1.000000 -0.000000
vn -0.000001 -1.000000 -0.000001
vn -0.000001 -1.000000 -0.000001
vn -0.000002 -1.000000 0.000000
vn -0.000002 -1.000000 0.000000
vn -0.000001 -1.000000 0.000000
vn -0.000001 -1.000000 0.000000
vn -0.000002 1.000000 -0.000001
vn -0.000002 1.000000 -0.000001
vn -0.000007 1.000000 -0.000002
vn -0.000007 1.000000 -0.000002
vn -0.000009 1.000000 0.000001
vn -0.000009 1.000000 0.000001
vn -0.000008 1.000000 0.000000
vn -0.000008 1.000000 0.000000
vn -0.000001 1.000000 0.000000
vn -0.000001 1.000000 0.000000
vn -0.000004 1.000000 0.000001
vn -0.000004 1.000000 0.000001
vn 0.000000 1.000000 0.000000
vn 0.000000 1.000000 -0.000000
vn 0.000000 1.000000 0.000000
vn 0.000000 1.000000 0.000000
vn 0.000000 1.000000 0.000000
vn 0.000000 1.000000 0.000000
s 1
usemtl initialShadingGroup
f 8/1/1 2/2/2 21/3/3 22/4/4
f 10/5/5 6/6/6 23/7/7 24/8/8
f 6/6/6 8/1/1 22/4/4 23/7/7
f 1/9/9 10/5/5 24/8/8 25/10/10
f 12/11/11 11/12/12 16/13/13 17/14/14
f 13/15/15 12/11/11 17/14/14 18/16/16
f 14/17/17 13/15/15 18/16/16 19/18/18
f 15/19/19 14/17/17 19/18/18 20/20/20
f 17/14/14 16/13/13 4/21/21 7/22/22
f 18/16/16 17/14/14 7/22/22 5/23/23
f 19/18/18 18/16/16 5/23/23 9/24/24
f 20/20/20 19/18/18 9/24/24 3/25/25
f 22/4/4 21/3/3 11/12/12 12/11/11
f 23/7/7 22/4/4 12/11/11 13/15/15
f 24/8/8 23/7/7 13/15/15 14/17/17
f 25/10/10 24/8/8 14/17/17 15/19/19
s 2
f 30/26/26 26/27/27 42/28/28 43/29/29
f 10/5/30 6/6/31 44/30/32 45/31/33
f 6/6/31 30/26/26 43/29/29 44/30/32
f 1/9/34 10/5/30 45/31/33 46/32/35
f 33/33/36 32/34/37 37/35/38 38/36/39
f 34/37/40 33/33/36 38/36/39 39/38/41
f 35/39/42 34/37/40 39/38/41 40/40/43
f 36/41/44 35/39/42 40/40/43 41/42/45
f 39/38/41 38/36/39 29/43/46 28/44/47
f 40/40/43 39/38/41 28/44/47 31/45/48
f 41/42/45 40/40/43 31/45/48 27/46/49
f 43/29/29 42/28/28 32/34/37 33/33/36
f 44/30/32 43/29/29 33/33/36 34/37/40
f 45/31/33 44/30/32 34/37/40 35/39/42
f 46/32/35 45/31/33 35/39/42 36/41/44
s 3
f 1/9/50 25/10/51 48/47/52 47/48/53
f 15/19/54 20/20/55 50/49/56 49/50/57
f 20/20/58 3/25/59 51/51/60 50/49/56
f 25/10/61 15/19/62 49/50/57 48/47/52
s 7
f 52/52/63 47/48/64 1/9/65 46/32/66
f 54/53/67 53/54/68 36/41/69 41/42/70
f 55/55/71 54/53/67 41/42/72 27/46/73
f 53/54/68 52/52/63 46/32/74 36/41/75
s 3
f 47/48/53 48/47/52 57/56/76 56/57/77
f 49/50/57 50/49/56 59/58/78 58/59/79
f 50/49/56 51/51/60 60/60/80 59/58/78
f 48/47/52 49/50/57 58/59/79 57/56/76
s 7
f 61/61/81 56/57/82 47/48/64 52/52/63
f 63/62/83 62/63/84 53/54/68 54/53/67
f 64/64/85 63/62/83 54/53/67 55/55/71
f 62/63/84 61/61/81 52/52/63 53/54/68
s 11
f 69/65/86 55/55/87 27/46/88 68/66/89
s 12
f 70/67/90 64/64/91 55/55/92 69/65/93
s 11
f 72/68/94 69/65/86 68/66/89 71/69/95
s 12
f 70/67/90 69/65/93 72/68/96 73/70/97
s 11
f 75/71/98 72/68/94 71/69/95 74/72/99
s 12
f 76/73/100 73/70/97 72/68/96 75/71/101
s 11
f 65/74/102 66/75/103 75/71/98 74/72/99
s 12
f 66/75/104 67/76/105 76/73/100 75/71/101
s 13
f 3/25/106 80/77/107 81/78/108 51/51/109
s 14
f 51/51/110 81/78/111 82/79/112 60/60/113
s 13
f 80/77/107 77/80/114 78/81/115 81/78/108
s 14
f 81/78/111 78/81/116 79/82/117 82/79/112
s 15
f 85/83/118 86/84/119 93/85/120 94/86/121
f 79/82/122 78/81/123 91/87/124 92/88/125
f 88/89/126 87/90/127 97/91/128 98/92/129
f 90/93/130 89/94/131 95/95/132 96/96/133
f 91/87/124 89/94/131 90/93/130 92/88/125
f 93/85/120 87/90/127 88/89/126 94/86/121
f 95/95/132 86/84/119 85/83/118 96/96/133
f 97/91/128 83/97/134 84/98/135 98/92/129
s 17
f 99/99/136 102/100/137 101/101/138 100/102/139
f 103/103/140 106/104/141 105/105/142 104/106/143
f 104/106/143 105/105/142 102/100/137 99/99/136
f 107/107/144 108/108/145 106/104/141 103/103/140
f 109/109/146 112/110/147 111/111/148 110/112/149
f 113/113/150 114/114/151 112/110/147 109/109/146
f 115/115/152 116/116/153 114/114/151 113/113/150
f 117/117/154 118/118/155 116/116/153 115/115/152
f 112/110/147 120/119/156 119/120/157 111/111/148
f 114/114/151 121/121/158 120/119/156 112/110/147
f 116/116/153 122/122/159 121/121/158 114/114/151
f 118/118/155 123/123/160 122/122/159 116/116/153
f 102/100/137 109/109/146 110/112/149 101/101/138
f 105/105/142 113/113/150 109/109/146 102/100/137
f 106/104/141 115/115/152 113/113/150 105/105/142
f 108/108/145 117/117/154 115/115/152 106/104/141
s 20
f 124/124/161 127/125/162 126/126/163 125/127/164
f 103/103/165 129/128/166 128/129/167 104/106/168
f 104/106/168 128/129/167 127/125/162 124/124/161
f 107/107/169 130/130/170 129/128/166 103/103/165
f 131/131/171 134/132/172 133/133/173 132/134/174
f 135/135/175 136/136/176 134/132/172 131/131/171
f 137/137/177 138/138/178 136/136/176 135/135/175
f 139/139/179 140/140/180 138/138/178 137/137/177
f 136/136/176 142/141/181 141/142/182 134/132/172
f 138/138/178 143/143/183 142/141/181 136/136/176
f 140/140/180 144/144/184 143/143/183 138/138/178
f 127/125/162 131/131/171 132/134/174 126/126/163
f 128/129/167 135/135/175 131/131/171 127/125/162
f 129/128/166 137/137/177 135/135/175 128/129/167
f 130/130/170 139/139/179 137/137/177 129/128/166
s 23
f 164/145/185 165/146/186 163/147/187 162/148/188
s 24
f 159/149/189 82/79/190 79/82/191 161/150/192
f 153/151/193 60/60/194 82/79/190 159/149/189
s 25
f 152/152/195 59/58/196 60/60/197 153/151/198
f 151/153/199 58/59/200 59/58/196 152/152/195
f 150/154/201 57/56/202 58/59/200 151/153/199
f 146/155/203 56/57/204 57/56/202 150/154/201
s 26
f 61/61/205 145/156/206 146/155/207 56/57/208
f 62/63/209 148/157/210 145/156/206 61/61/205
f 63/62/211 147/158/212 148/157/210 62/63/209
f 64/64/213 149/159/214 147/158/212 63/62/211
s 27
f 70/67/215 154/160/216 149/159/217 64/64/218
f 70/67/215 73/70/219 155/161/220 154/160/216
f 76/73/221 156/162/222 155/161/220 73/70/219
f 67/76/223 157/163/224 156/162/222 76/73/221
s 23
f 161/150/225 79/82/226 166/164/227 167/165/228
f 170/166/229 171/167/230 169/168/231 168/169/232
f 174/170/233 175/171/234 173/172/235 172/173/236
f 167/165/228 166/164/227 174/170/233 172/173/236
f 163/147/187 165/146/186 170/166/229 168/169/232
f 173/172/235 175/171/234 164/145/185 162/148/188
f 169/168/231 171/167/230 177/174/237 176/175/238
s 30
f 158/176/239 159/149/240 161/150/241 160/177/242
f 123/123/243 153/151/244 159/149/240 158/176/239
s 25
f 118/118/245 152/152/195 153/151/198 123/123/246
f 117/117/247 151/153/199 152/152/195 118/118/248
f 108/108/249 150/154/201 151/153/199 117/117/250
f 107/107/251 146/155/203 150/154/201 108/108/252
s 26
f 145/156/206 130/130/253 107/107/254 146/155/207
f 148/157/210 139/139/255 130/130/256 145/156/206
f 147/158/212 140/140/257 139/139/258 148/157/210
f 149/159/214 144/144/259 140/140/260 147/158/212
s 31
f 154/160/261 178/178/262 144/144/263 149/159/264
f 154/160/261 155/161/265 179/179/266 178/178/262
f 156/162/267 180/180/268 179/179/266 155/161/265
f 157/163/269 181/181/270 180/180/268 156/162/267
